<mxfile host="drawio-plugin" modified="2022-06-02T07:25:48.714Z" agent="5.0 (Windows NT 6.2; Win64; x64) AppleWebKit/537.36 (KHTML, like Gecko) Chrome/97.0.4692.45 Safari/537.36" etag="22y_8h8kBWrhllf96cdV" version="15.5.4" type="embed"><diagram id="23iRSUPoRavnBvh4doch" name="Page-1"><mxGraphModel dx="740" dy="402" grid="1" gridSize="10" guides="1" tooltips="1" connect="1" arrows="1" fold="1" page="1" pageScale="1" pageWidth="827" pageHeight="1169" math="1" shadow="0"><root><mxCell id="0"/><mxCell id="1" parent="0"/><mxCell id="6" style="edgeStyle=orthogonalEdgeStyle;rounded=0;orthogonalLoop=1;jettySize=auto;html=1;" parent="1" source="2" target="13" edge="1"><mxGeometry relative="1" as="geometry"><mxPoint x="320" y="40" as="targetPoint"/></mxGeometry></mxCell><mxCell id="2" value="console" style="rounded=0;whiteSpace=wrap;html=1;" parent="1" vertex="1"><mxGeometry x="163" y="9" width="120" height="61" as="geometry"/></mxCell><mxCell id="5" style="edgeStyle=orthogonalEdgeStyle;rounded=0;orthogonalLoop=1;jettySize=auto;html=1;exitX=0.5;exitY=1;exitDx=0;exitDy=0;" parent="1" source="12" target="4" edge="1"><mxGeometry relative="1" as="geometry"/></mxCell><mxCell id="8" style="edgeStyle=orthogonalEdgeStyle;rounded=0;orthogonalLoop=1;jettySize=auto;html=1;entryX=0.5;entryY=0;entryDx=0;entryDy=0;exitX=0.5;exitY=1;exitDx=0;exitDy=0;" parent="1" source="9" target="7" edge="1"><mxGeometry relative="1" as="geometry"/></mxCell><mxCell id="10" style="edgeStyle=orthogonalEdgeStyle;rounded=0;orthogonalLoop=1;jettySize=auto;html=1;entryX=0;entryY=0.5;entryDx=0;entryDy=0;" edge="1" parent="1" source="3" target="9"><mxGeometry relative="1" as="geometry"/></mxCell><mxCell id="3" value="nonebot" style="rounded=0;whiteSpace=wrap;html=1;" parent="1" vertex="1"><mxGeometry x="450" y="90" width="120" height="60" as="geometry"/></mxCell><mxCell id="4" value="telegram" style="rounded=0;whiteSpace=wrap;html=1;" parent="1" vertex="1"><mxGeometry x="450" y="287" width="120" height="59" as="geometry"/></mxCell><mxCell id="7" value="qq" style="rounded=0;whiteSpace=wrap;html=1;" parent="1" vertex="1"><mxGeometry x="620" y="297" width="120" height="59" as="geometry"/></mxCell><mxCell id="9" value="cqhttp" style="rounded=0;whiteSpace=wrap;html=1;" vertex="1" parent="1"><mxGeometry x="620" y="90" width="120" height="60" as="geometry"/></mxCell><mxCell id="12" value="nonebot" style="rounded=0;whiteSpace=wrap;html=1;" vertex="1" parent="1"><mxGeometry x="450" y="173" width="120" height="60" as="geometry"/></mxCell><mxCell id="13" value="nonebot" style="rounded=0;whiteSpace=wrap;html=1;" vertex="1" parent="1"><mxGeometry x="450" y="10" width="120" height="60" as="geometry"/></mxCell></root></mxGraphModel></diagram></mxfile>